<svg width="42" height="42" viewBox="0 0 42 42" fill="none" xmlns="http://www.w3.org/2000/svg">
<path d="M24.5368 17.5341L23.0311 17.9602C22.9364 17.7093 22.7967 17.4654 22.612 17.2287C22.4321 16.9872 22.1859 16.7884 21.8734 16.6321C21.5609 16.4759 21.1608 16.3977 20.6731 16.3977C20.0055 16.3977 19.4492 16.5516 19.0041 16.8594C18.5637 17.1624 18.3436 17.5483 18.3436 18.017C18.3436 18.4337 18.4951 18.7628 18.7981 19.0043C19.1011 19.2457 19.5746 19.447 20.2186 19.608L21.8379 20.0057C22.8133 20.2424 23.5401 20.6046 24.0183 21.0923C24.4965 21.5753 24.7356 22.1979 24.7356 22.9602C24.7356 23.5852 24.5557 24.1439 24.1958 24.6364C23.8407 25.1288 23.3436 25.517 22.7044 25.8011C22.0652 26.0852 21.3218 26.2273 20.4743 26.2273C19.3616 26.2273 18.4406 25.9858 17.7115 25.5028C16.9823 25.0199 16.5207 24.3144 16.3265 23.3864L17.9174 22.9886C18.069 23.5758 18.3554 24.0161 18.7768 24.3097C19.2029 24.6032 19.7593 24.75 20.4458 24.75C21.2271 24.75 21.8474 24.5843 22.3066 24.2528C22.7707 23.9167 23.0027 23.5142 23.0027 23.0455C23.0027 22.6667 22.8701 22.3494 22.6049 22.0938C22.3398 21.8333 21.9326 21.6392 21.3833 21.5114L19.5652 21.0852C18.5661 20.8485 17.8322 20.4815 17.3635 19.9844C16.8994 19.4825 16.6674 18.8551 16.6674 18.1023C16.6674 17.4867 16.8403 16.9422 17.1859 16.4688C17.5363 15.9953 18.0121 15.6236 18.6135 15.3537C19.2195 15.0838 19.9061 14.9489 20.6731 14.9489C21.7527 14.9489 22.6002 15.1856 23.2157 15.6591C23.836 16.1326 24.2763 16.7576 24.5368 17.5341Z" fill="black"/>
<circle cx="21" cy="21" r="20" stroke="#000001" stroke-width="2"/>
<path d="M12.7396 6.7993L37.0834 20.8542L12.7396 34.909L12.7396 6.7993Z" stroke="#000001" stroke-width="2"/>
</svg>
